<?xml version="1.0" encoding="UTF-8"?>
<!DOCTYPE svg PUBLIC "-//W3C//DTD SVG 1.1//EN" "http://www.w3.org/Graphics/SVG/1.1/DTD/svg11.dtd">
<!-- Creator: CorelDRAW X7 -->
<svg xmlns="http://www.w3.org/2000/svg" xml:space="preserve" width="2480px" height="3508px" version="1.1" style="shape-rendering:geometricPrecision; text-rendering:geometricPrecision; image-rendering:optimizeQuality; fill-rule:evenodd; clip-rule:evenodd"
viewBox="0 0 2480000 3507429"
 xmlns:xlink="http://www.w3.org/1999/xlink">
 <defs>
  <style type="text/css">
   <![CDATA[
    .fil6 {fill:#FEFEFE;fill-rule:nonzero}
    .fil0 {fill:#E63934;fill-rule:nonzero}
    .fil5 {fill:#DB3932;fill-rule:nonzero}
    .fil1 {fill:#FCDB00;fill-rule:nonzero}
    .fil4 {fill:#F1D100;fill-rule:nonzero}
    .fil2 {fill:#68B551;fill-rule:nonzero}
    .fil3 {fill:#65AD4E;fill-rule:nonzero}
    .fil7 {fill:#4684F0;fill-rule:nonzero}
   ]]>
  </style>
 </defs>
 <g id="Слой_x0020_1">
  <metadata id="CorelCorpID_0Corel-Layer"/>
  <g id="_858832551328">
   <path class="fil0" d="M1237637 842618c0,0 535255,-24092 818938,513840 -149874,0 -864451,0 -864451,0 0,0 -163256,-5369 -302428,192707 -40135,82970 -82950,168614 -34781,337193 -69585,-117734 -369336,-639623 -369336,-639623 0,0 211447,-382717 752058,-404117z"/>
  </g>
  <g id="_858832552096">
   <path class="fil1" d="M2028711 2208403c0,0 -246831,475534 -854549,452165 74969,-129765 432329,-748574 432329,-748574 0,0 86277,-138687 -15599,-358248 -51787,-76260 -104528,-156174 -274627,-198780 136799,-1357 738595,85 738595,85 0,0 225670,374499 -26149,853352z"/>
  </g>
  <g id="_858832548640">
   <path class="fil2" d="M450368 2212021c0,0 -288391,-451581 35744,-966159 74905,129816 432073,748738 432073,748738 0,0 76945,144058 318044,165629 91908,-6706 187505,-12425 309462,-138410 -67235,119125 -369422,639587 -369422,639587 0,0 -437152,8150 -725901,-449385z"/>
  </g>
  <g id="_858832550304">
   <path class="fil3" d="M1174162 2664974l121590 -507402c0,0 133698,-10435 245732,-133385 -69546,122336 -367322,640787 -367322,640787z"/>
  </g>
  <g id="_858832549376">
   <path class="fil4" d="M2054860 1355051l-500694 146804c0,0 -75504,-110803 -237901,-146889 140709,-481 738595,85 738595,85z"/>
  </g>
  <g id="_858832548800">
   <path class="fil5" d="M845171 1868144c-70367,-121857 -359580,-621418 -359580,-621418l370912 366910c0,0 -38121,78408 -23663,190393l12331 64115z"/>
  </g>
  <path class="fil6" d="M822294 1759390c0,-228154 184937,-413110 413110,-413110 228156,0 413106,184956 413106,413110 0,228171 -184950,413125 -413106,413125 -228173,0 -413110,-184954 -413110,-413125z"/>
  <path class="fil7" d="M881315 1759390c0,-195547 158522,-354071 354089,-354071 195530,0 354069,158524 354069,354071 0,195549 -158539,354088 -354069,354088 -195567,0 -354089,-158539 -354089,-354088z"/>
 </g>
</svg>
