<?xml version="1.0" encoding="UTF-8"?>
<!DOCTYPE svg PUBLIC "-//W3C//DTD SVG 1.1//EN" "http://www.w3.org/Graphics/SVG/1.1/DTD/svg11.dtd">
<!-- Creator: CorelDRAW X7 -->
<svg xmlns="http://www.w3.org/2000/svg" xml:space="preserve" width="1228px" height="283px" version="1.1" style="shape-rendering:geometricPrecision; text-rendering:geometricPrecision; image-rendering:optimizeQuality; fill-rule:evenodd; clip-rule:evenodd"
viewBox="0 0 1228000 283385"
 xmlns:xlink="http://www.w3.org/1999/xlink">
 <defs>
  <style type="text/css">
   <![CDATA[
    .fil4 {fill:#565E61;fill-rule:nonzero}
    .fil1 {fill:#EDEDED;fill-opacity:0.980392}
    .fil2 {fill:white;fill-opacity:0.980392}
    .fil3 {fill:white;fill-opacity:0.980392}
    .fil5 {fill:url(#id0);fill-opacity:0.980392}
    .fil0 {fill:url(#id1);fill-opacity:0.980392}
   ]]>
  </style>
  <linearGradient id="id0" gradientUnits="userSpaceOnUse" x1="580938" y1="216544" x2="580938" y2="66841">
   <stop offset="0" style="stop-opacity:1; stop-color:#ED523F"/>
   <stop offset="1" style="stop-opacity:1; stop-color:#FF944E"/>
  </linearGradient>
  <linearGradient id="id1" gradientUnits="userSpaceOnUse" x1="581001" y1="273165" x2="581001" y2="15750.3">
   <stop offset="0" style="stop-opacity:1; stop-color:#E1473F"/>
   <stop offset="0.509804" style="stop-opacity:1; stop-color:#F7603E"/>
   <stop offset="1" style="stop-opacity:1; stop-color:#FC9551"/>
  </linearGradient>
 </defs>
 <g id="Слой_x0020_1">
  <metadata id="CorelCorpID_0Corel-Layer"/>
  <path class="fil0" d="M611974 17602c50913,18168 87354,66816 87354,123972 0,72675 -58917,131592 -131593,131592 -42922,0 -81040,-20555 -105061,-52353 15595,10840 34540,17199 54971,17199 53260,0 96438,-43177 96438,-96439 0,-29806 -13525,-56457 -34769,-74145 -19751,-16447 -44385,-30419 -37758,-39009 9479,-12286 58589,-15039 70418,-10817z"/>
  <path class="fil1" d="M567745 10220c16955,0 33161,3209 48046,9049 -28625,-3830 -50935,790 -68233,12117 0,0 25334,-1667 43371,17274 0,0 -25284,1804 -35489,11205 -10206,9401 -77161,-8132 -92756,2708 24021,-31799 62138,-52353 105061,-52353z"/>
  <path class="fil2" d="M514924 45254c53261,0 96438,43177 96438,96438 0,53262 -43177,96438 -96438,96438 -53262,0 -96439,-43176 -96439,-96438 0,-53261 43177,-96438 96439,-96438z"/>
  <path class="fil3" d="M519691 43671c54889,0 99385,44497 99385,99386 0,54890 -44496,99386 -99385,99386 -54889,0 -99387,-44496 -99387,-99386 0,-54889 44498,-99386 99387,-99386z"/>
  <path class="fil4" d="M33347 150085l0 39251 -18002 0 0 -95287 97993 0 0 14078 -79991 0 0 27881 74578 0 0 14077 -74578 0z"/>
  <path id="1" class="fil4" d="M211333 175260c10647,0 15971,-2075 15971,-6226l0 -54411c0,-4331 -5324,-6496 -15971,-6496l-54682 0c-10648,0 -15971,2165 -15971,6496l0 54140c0,4332 5323,6497 15971,6497l54682 0zm-88655 -60637c0,-13716 11325,-20574 33973,-20574l54682 0c22648,0 33973,6858 33973,20574l0 54411c0,13535 -11325,20302 -33973,20302l-54682 0c-22648,0 -33973,-6858 -33973,-20573l0 -54140z"/>
  <path id="2" class="fil4" d="M318396 132219l42364 -38170 23146 0 -54005 46967 54275 48320 -23280 0 -42500 -38033 -42229 38033 -23551 0 54410 -47643 -54410 -47644 23415 0 42365 38170z"/>
  <path id="3" class="fil4" d="M446978 150626l-61178 -56577 23009 0 47103 43584 47102 -43584 22738 0 -60772 56577 0 38710 -18002 0 0 -38710z"/>
  <path id="4" class="fil4" d="M731888 94049l116537 0 0 14078 -48591 0 0 81209 -18001 0 0 -81209 -49945 0 0 -14078z"/>
  <path id="5" class="fil4" d="M961714 189336l-19491 0 -49944 -77827 -50757 77827 -19219 0 63344 -95287 13129 0 62938 95287z"/>
  <path id="6" class="fil4" d="M970512 94049l74037 0c22648,0 33973,6858 33973,20574l0 9068c0,7941 -3520,13445 -10558,16514 7038,3248 10558,8211 10558,14888l0 13670c0,13715 -11325,20573 -33973,20573l-74037 0 0 -95287zm74037 81211c10647,0 15971,-2165 15971,-6497l0 -15023c0,-1986 -1241,-3565 -3722,-4738 -2482,-1173 -6249,-1760 -11302,-1760l-56982 0 0 28018 56035 0zm-56035 -67133l0 25039 57253 0c4872,0 8549,-609 11031,-1828 2481,-1217 3722,-2773 3722,-4669l0 -12046c0,-4331 -5324,-6496 -15971,-6496l-56035 0z"/>
  <path id="7" class="fil4" d="M1178682 131541c22648,0 33973,6858 33973,20574l0 16919c0,13535 -11325,20302 -33973,20302l-81346 0 0 -14076 81346 0c10647,0 15971,-2075 15971,-6226l0 -16919c0,-4331 -5324,-6497 -15971,-6497l-50622 0c-22649,0 -33972,-6858 -33972,-20573l0 -10422c0,-13716 11323,-20574 33972,-20574l78639 0 0 14078 -78639 0c-10647,0 -15971,2165 -15971,6496l0 10422c0,4331 5324,6496 15971,6496l50622 0z"/>
  <path class="fil5" d="M508034 176217c60335,-6192 101418,-53252 59772,-109376 35964,14965 44817,38014 44817,38014 4011,-10403 10121,-25954 11346,-27979 13172,7392 26199,31092 28871,49689 13763,95794 -118332,119547 -144806,49652z"/>
 </g>
</svg>
