<?xml version="1.0" encoding="UTF-8"?>
<!DOCTYPE svg PUBLIC "-//W3C//DTD SVG 1.1//EN" "http://www.w3.org/Graphics/SVG/1.1/DTD/svg11.dtd">
<!-- Creator: CorelDRAW X7 -->
<svg xmlns="http://www.w3.org/2000/svg" xml:space="preserve" width="250px" height="140px" version="1.1" style="shape-rendering:geometricPrecision; text-rendering:geometricPrecision; image-rendering:optimizeQuality; fill-rule:evenodd; clip-rule:evenodd"
viewBox="0 0 250000 139999"
 xmlns:xlink="http://www.w3.org/1999/xlink">
 <defs>
  <style type="text/css">
   <![CDATA[
    .fil1 {fill:#ECECEC;fill-opacity:0.980392}
    .fil2 {fill:url(#id0)}
    .fil0 {fill:url(#id1)}
   ]]>
  </style>
  <linearGradient id="id0" gradientUnits="userSpaceOnUse" x1="130500" y1="88686.9" x2="130500" y2="51312">
   <stop offset="0" style="stop-opacity:1; stop-color:#959595"/>
   <stop offset="1" style="stop-opacity:1; stop-color:#A6A6A6"/>
  </linearGradient>
  <linearGradient id="id1" gradientUnits="userSpaceOnUse" x1="131307" y1="102822" x2="131307" y2="38830">
   <stop offset="0" style="stop-opacity:1; stop-color:#8F8F8F"/>
   <stop offset="0.509804" style="stop-opacity:1; stop-color:#9A9A9A"/>
   <stop offset="1" style="stop-opacity:1; stop-color:#A6A6A6"/>
  </linearGradient>
 </defs>
 <g id="Слой_x0020_1">
  <metadata id="CorelCorpID_0Corel-Layer"/>
  <path class="fil0" d="M138248 39019c12712,4535 21810,16681 21810,30951 0,18144 -14710,32854 -32854,32854 -9817,0 -18628,-4309 -24647,-11137 3704,2200 8031,3466 12653,3466 6618,0 12631,-2591 17079,-6815 4514,-15885 82,-12875 6121,-27536 0,0 -369,-962 -1421,-2356 -2400,-4386 -6087,-7969 -10553,-10239 2875,-1172 6559,-1434 6559,-1434 -4504,-4729 -10828,-4313 -10828,-4313 4319,-2828 9888,-3982 17035,-3025 -551,-216 -1109,-418 -1674,-605 279,54 521,118 720,189z"/>
  <path class="fil1" d="M127206 37175c4233,0 8280,801 11996,2260 -7147,-957 -12716,197 -17035,3025 0,0 6324,-416 10828,4313 0,0 -3683,263 -6558,1434 -3372,-1714 -7187,-2680 -11227,-2680 -3245,0 -6343,624 -9183,1756 -1510,532 -2950,1207 -4303,2013 6024,-7396 15201,-12121 25482,-12121l0 0z"/>
  <path class="fil2" d="M112300 78619c15062,-1546 25319,-13296 14922,-27307 8978,3736 11188,9490 11188,9490 1002,-2597 2528,-6479 2834,-6985 3288,1845 6541,7762 7207,12405 3437,23916 -29542,29847 -36151,12397l0 0z"/>
 </g>
</svg>
