<?xml version="1.0" encoding="UTF-8"?>
<!DOCTYPE svg PUBLIC "-//W3C//DTD SVG 1.1//EN" "http://www.w3.org/Graphics/SVG/1.1/DTD/svg11.dtd">
<!-- Creator: CorelDRAW X7 -->
<svg xmlns="http://www.w3.org/2000/svg" xml:space="preserve" width="250px" height="140px" version="1.1" style="shape-rendering:geometricPrecision; text-rendering:geometricPrecision; image-rendering:optimizeQuality; fill-rule:evenodd; clip-rule:evenodd"
viewBox="0 0 250000 139999"
 xmlns:xlink="http://www.w3.org/1999/xlink">
 <defs>
  <style type="text/css">
   <![CDATA[
    .fil2 {fill:#009856}
    .fil1 {fill:#434242}
    .fil0 {fill:#2B2A29;fill-rule:nonzero}
   ]]>
  </style>
 </defs>
 <g id="Слой_x0020_1">
  <metadata id="CorelCorpID_0Corel-Layer"/>
  <path class="fil0" d="M324064 -10563l-2420 -13246 2224 0 1758 10363 25 0 2358 -9164 2332 0 2237 9519 38 0 1954 -10718 1844 0 -2649 13246 -2370 0 -2336 -9909 -22 0 -2578 9909 -2395 0z"/>
  <path id="1" class="fil0" d="M346729 -12170c-1457,1220 -2908,1832 -4357,1832 -1208,0 -2208,-345 -2991,-1037 -787,-688 -1178,-1562 -1178,-2616 0,-1374 608,-2478 1828,-3316 1220,-837 2832,-1254 4832,-1254l1487 0 0 -1141c0,-937 -208,-1608 -620,-2008 -417,-399 -1105,-600 -2062,-600 -1392,0 -2829,392 -4316,1171l0 -2058c1704,-608 3303,-912 4794,-912 1683,0 2870,333 3562,999 696,667 1042,1821 1042,3454l0 5557c0,795 87,1341 257,1629 172,287 492,433 963,433 154,0 409,-42 758,-121l221 1432c-804,259 -1412,388 -1825,388 -1183,0 -1983,-612 -2395,-1832zm-379 -1554l0 -3337 -717 0c-3286,0 -4931,887 -4931,2666 0,641 212,1158 633,1549 420,388 983,584 1678,584 1050,0 2163,-488 3337,-1462z"/>
  <path id="2" class="fil0" d="M353836 -10563l0 -13246 2400 0 0 2483c1108,-1854 2616,-2783 4519,-2783 2520,0 3778,1491 3778,4478l0 9068 -2399 0 0 -8414c0,-1033 -163,-1770 -483,-2204 -321,-437 -862,-654 -1620,-654 -1209,0 -2475,870 -3795,2608l0 8664 -2400 0z"/>
  <path id="3" class="fil0" d="M380118 -10579c-1205,212 -2367,316 -3487,316 -1958,0 -3295,-349 -3999,-1053 -709,-704 -1062,-2038 -1062,-3999l0 -6395 -3300 0 0 -1799 3300 0 0 -2850 2399 0 0 2850 5874 0 0 1799 -5874 0 0 6790c0,759 46,1279 142,1562 92,288 295,534 603,746 554,366 1363,549 2420,549 1004,0 1996,-112 2984,-341l0 1825z"/>
  <path id="4" class="fil0" d="M323218 19254l0 -1800 979 0c912,0 1574,-145 1991,-440 413,-292 850,-925 1304,-1892l600 -1275 -5573 -12662 2486 0 4345 9880 4377 -9880 2163 0 -6686 14945c-521,1163 -1146,1975 -1870,2437 -725,458 -1754,687 -3091,687l-1025 0z"/>
  <path id="5" class="fil0" d="M344075 14731c-1945,0 -3474,-617 -4581,-1850 -1113,-1228 -1667,-2924 -1667,-5082 0,-2145 559,-3836 1670,-5065 1117,-1233 2641,-1849 4578,-1849 1945,0 3475,616 4583,1849 1112,1229 1666,2920 1666,5065 0,2158 -554,3854 -1666,5082 -1108,1233 -2638,1850 -4583,1850zm0 -1800c1154,0 2054,-450 2700,-1354 650,-903 975,-2161 975,-3778 0,-1604 -325,-2857 -975,-3761 -646,-905 -1546,-1355 -2700,-1355 -1149,0 -2053,450 -2699,1355 -649,904 -974,2157 -974,3761 0,1617 325,2875 974,3778 646,904 1550,1354 2699,1354z"/>
  <path id="6" class="fil0" d="M364459 1185l0 13246 -2400 0 0 -2496c-1108,1863 -2620,2796 -4532,2796 -2512,0 -3766,-1496 -3766,-4486l0 -9060 2399 0 0 8406c0,1041 158,1778 480,2212 316,437 857,653 1624,653 1208,0 2474,-874 3795,-2620l0 -8651 2400 0z"/>
  <path id="7" class="fil0" d="M370420 14431l0 -13246 2400 0 0 2482c1223,-1854 2865,-2782 4927,-2782 725,0 1550,99 2470,303l0 3770 -1799 0 0 -1853c-359,-79 -687,-122 -979,-122 -925,0 -1733,213 -2433,642 -699,425 -1429,1154 -2186,2179l0 8627 -2400 0z"/>
  <path id="8" class="fil0" d="M323768 38887l0 -2170c1866,803 3479,1207 4841,1207 974,0 1782,-195 2423,-590 638,-397 959,-897 959,-1500 0,-775 -763,-1405 -2283,-1891l-2575 -843c-2011,-649 -3015,-1798 -3015,-3440 0,-1204 453,-2137 1362,-2795 908,-659 2191,-987 3849,-987 1245,0 2691,191 4336,571l0 1948c-1586,-478 -3040,-720 -4353,-720 -878,0 -1582,158 -2108,479 -524,317 -786,746 -786,1283 0,658 600,1195 1795,1612l3040 1062c1104,387 1900,854 2387,1396 483,541 725,1242 725,2104 0,1254 -516,2249 -1549,2995 -1034,745 -2425,1116 -4166,1116 -1520,0 -3149,-279 -4882,-837z"/>
  <path id="9" class="fil0" d="M343476 39424l0 -11447 -4823 0 0 -1799 7222 0 0 13246 -2399 0zm-325 -16246l0 -3024 3024 0 0 3024 -3024 0z"/>
  <path id="10" class="fil0" d="M365059 39408c-1205,212 -2367,316 -3487,316 -1958,0 -3295,-349 -3999,-1053 -709,-704 -1062,-2038 -1062,-4000l0 -6394 -3300 0 0 -1799 3300 0 0 -2850 2399 0 0 2850 5873 0 0 1799 -5873 0 0 6790c0,758 46,1279 142,1561 92,289 295,534 603,747 554,366 1363,549 2420,549 1004,0 1996,-112 2984,-341l0 1825z"/>
  <path id="11" class="fil0" d="M380067 38900c-1665,549 -3195,824 -4586,824 -2274,0 -4028,-587 -5249,-1757 -1224,-1171 -1837,-2846 -1837,-5025 0,-2057 587,-3749 1762,-5077 1179,-1324 2674,-1987 4486,-1987 1833,0 3183,549 4049,1649 867,1099 1301,2807 1301,5128l0 770 -9023 0c178,3000 1795,4499 4849,4499 1290,0 2707,-308 4248,-928l0 1904zm-9023 -7274l6374 0 0 -341c0,-2403 -996,-3608 -2983,-3608 -954,0 -1732,346 -2328,1042 -596,695 -950,1666 -1063,2907z"/>
  <path id="12" class="fil0" d="M334940 64401c-1204,213 -2367,317 -3486,317 -1958,0 -3295,-350 -3999,-1054 -709,-704 -1062,-2037 -1062,-3999l0 -6395 -3300 0 0 -1799 3300 0 0 -2850 2399 0 0 2850 5873 0 0 1799 -5873 0 0 6790c0,759 46,1280 141,1562 92,288 296,534 604,746 554,366 1363,550 2420,550 1004,0 1996,-113 2983,-342l0 1825z"/>
  <path id="13" class="fil0" d="M344075 64718c-1945,0 -3474,-617 -4581,-1850 -1113,-1228 -1667,-2925 -1667,-5082 0,-2145 559,-3837 1670,-5065 1117,-1233 2641,-1850 4578,-1850 1945,0 3475,617 4583,1850 1112,1228 1666,2920 1666,5065 0,2157 -554,3854 -1666,5082 -1108,1233 -2638,1850 -4583,1850zm0 -1800c1154,0 2054,-450 2700,-1354 650,-904 975,-2161 975,-3778 0,-1604 -325,-2857 -975,-3761 -646,-905 -1546,-1355 -2700,-1355 -1149,0 -2053,450 -2699,1355 -649,904 -974,2157 -974,3761 0,1617 325,2874 974,3778 646,904 1550,1354 2699,1354z"/>
  <path id="14" class="fil0" d="M353712 64568l0 -19420 2399 0 0 8506c1165,-1854 2611,-2783 4335,-2783 1509,0 2696,579 3563,1737 865,1162 1299,2741 1299,4741 0,2195 -513,3974 -1537,5331 -1029,1358 -2370,2038 -4032,2038 -1424,0 -2633,-600 -3628,-1800l-596 1650 -1803 0zm2399 -3458c1112,1204 2212,1808 3295,1808 1053,0 1874,-467 2458,-1400 578,-928 870,-2232 870,-3911 0,-3124 -933,-4686 -2795,-4686 -1359,0 -2633,845 -3828,2540l0 5649z"/>
  <path id="15" class="fil0" d="M380067 63893c-1665,549 -3195,825 -4586,825 -2274,0 -4028,-587 -5249,-1758 -1224,-1170 -1837,-2845 -1837,-5024 0,-2058 587,-3749 1762,-5078 1179,-1324 2674,-1987 4486,-1987 1833,0 3183,550 4049,1649 867,1100 1301,2808 1301,5129l0 770 -9023 0c178,3000 1795,4499 4849,4499 1290,0 2707,-309 4248,-929l0 1904zm-9023 -7273l6374 0 0 -341c0,-2404 -996,-3609 -2983,-3609 -954,0 -1732,346 -2328,1042 -596,696 -950,1667 -1063,2908z"/>
  <path id="16" class="fil0" d="M323718 89411l0 -19270 2400 0 0 6016 0 2490c1107,-1854 2616,-2782 4518,-2782 2521,0 3779,1490 3779,4477l0 9069 -2399 0 0 -8414c0,-1034 -163,-1771 -483,-2204 -321,-437 -862,-655 -1621,-655 -1208,0 -2474,871 -3794,2608l0 8665 -2400 0z"/>
  <path id="17" class="fil0" d="M349949 88887c-1666,549 -3195,824 -4586,824 -2274,0 -4028,-587 -5249,-1758 -1224,-1170 -1837,-2845 -1837,-5024 0,-2057 587,-3749 1762,-5078 1179,-1324 2674,-1986 4486,-1986 1833,0 3183,549 4049,1649 867,1099 1300,2807 1300,5128l0 770 -9022 0c178,3000 1795,4499 4848,4499 1291,0 2707,-308 4249,-928l0 1904zm-9023 -7274l6374 0 0 -341c0,-2404 -996,-3608 -2983,-3608 -954,0 -1732,346 -2328,1041 -596,696 -951,1667 -1063,2908z"/>
  <path id="18" class="fil0" d="M355361 89411l0 -13246 2400 0 0 2482c1223,-1854 2865,-2782 4927,-2782 725,0 1550,99 2470,303l0 3770 -1799 0 0 -1853c-359,-79 -687,-121 -979,-121 -925,0 -1733,212 -2433,641 -699,425 -1429,1154 -2186,2179l0 8627 -2400 0z"/>
  <path id="19" class="fil0" d="M380067 88887c-1665,549 -3195,824 -4586,824 -2274,0 -4028,-587 -5249,-1758 -1224,-1170 -1837,-2845 -1837,-5024 0,-2057 587,-3749 1762,-5078 1179,-1324 2674,-1986 4486,-1986 1833,0 3183,549 4049,1649 867,1099 1301,2807 1301,5128l0 770 -9023 0c178,3000 1795,4499 4849,4499 1290,0 2707,-308 4248,-928l0 1904zm-9023 -7274l6374 0 0 -341c0,-2404 -996,-3608 -2983,-3608 -954,0 -1732,346 -2328,1041 -596,696 -950,1667 -1063,2908z"/>
  <g id="_925046261104">
   <path class="fil1" d="M165293 138142l-14892 0 -8948 -14811c-673,-1124 -1318,-2125 -1934,-3014 -616,-879 -1232,-1631 -1863,-2261 -630,-630 -1289,-1111 -1973,-1452 -684,-331 -1425,-494 -2220,-494l-3495 0 0 22032 -12975 0 0 -57566 20553 0c13979,0 20967,5222 20967,15650 0,2014 -316,3864 -933,5563 -617,1701 -1480,3234 -2605,4604 -1122,1357 -2479,2536 -4069,3522 -1601,1001 -3370,1769 -5330,2330l0 164c863,274 1685,700 2496,1303 808,600 1574,1299 2329,2111 753,807 1466,1670 2149,2589 686,918 1303,1821 1864,2712l10879 17018zm-35325 -47850l0 16019 5618 0c2782,0 5016,-809 6702,-2413 1711,-1628 2577,-3659 2577,-6055 0,-5043 -3015,-7551 -9044,-7551l-5853 0z"/>
   <path class="fil1" d="M190985 70816l0 -32673 11898 0c3649,0 6448,668 8410,2006 1959,1330 2938,3220 2938,5647 0,1765 -598,3305 -1788,4628 -1197,1320 -2715,2239 -4573,2753l0 93c2324,287 4185,1151 5577,2574 1383,1433 2085,3165 2085,5219 0,2993 -1074,5367 -3213,7125 -2147,1749 -5073,2628 -8774,2628l-12560 0zm7364 -27252l0 7746 3236 0c1517,0 2716,-367 3585,-1106 880,-738 1315,-1749 1315,-3040 0,-2402 -1797,-3600 -5382,-3600l-2754 0zm0 13213l0 8617 3990 0c1697,0 3035,-397 3999,-1188 964,-787 1446,-1867 1446,-3236 0,-1308 -475,-2326 -1424,-3072 -956,-747 -2279,-1121 -3981,-1121l-4030 0z"/>
   <path class="fil1" d="M156538 71383c-4682,0 -8492,-1523 -11440,-4564 -2948,-3050 -4419,-7016 -4419,-11909 0,-5163 1493,-9339 4488,-12530 2994,-3187 6954,-4790 11893,-4790 4665,0 8438,1533 11316,4581 2878,3056 4316,7085 4316,12080 0,5131 -1493,9278 -4479,12419 -2980,3143 -6876,4713 -11675,4713zm320 -27454c-2583,0 -4636,964 -6154,2908 -1515,1937 -2278,4496 -2278,7685 0,3236 763,5795 2278,7684 1518,1882 3508,2823 5966,2823 2544,0 4551,-917 6044,-2746 1486,-1834 2232,-4370 2232,-7620 0,-3392 -724,-6029 -2162,-7911 -1447,-1882 -3422,-2823 -5926,-2823z"/>
   <path class="fil1" d="M72568 27986l-6529 0 -1892 -5919 -9459 0 -1875 5919 -6497 0 9686 -26599 7106 0 9460 26599zm-9795 -10516l-2857 -8940c-208,-673 -359,-1471 -447,-2394l-148 0c-63,779 -215,1551 -461,2318l-2893 9016 6806 0z"/>
   <path class="fil2" d="M240297 27986l-6883 0 -4134 -6845c-311,-519 -607,-980 -893,-1392 -285,-406 -568,-753 -861,-1045 -292,-293 -594,-511 -911,-671 -317,-152 -658,-228 -1026,-228l-1615 0 0 10181 -5995 0 0 -26599 9497 0c6457,0 9688,2410 9688,7229 0,932 -146,1786 -431,2573 -284,786 -684,1495 -1204,2126 -518,627 -1146,1174 -1879,1628 -742,462 -1559,816 -2464,1076l0 77c399,125 781,321 1153,601 374,278 727,601 1075,976 349,373 679,772 997,1195 315,425 600,841 861,1256l5025 7862zm-16323 -22111l0 7402 2598 0c1285,0 2316,-372 3095,-1115 792,-753 1191,-1689 1191,-2797 0,-2330 -1394,-3490 -4179,-3490l-2705 0z"/>
   <path class="fil2" d="M172943 28448c-3813,0 -6916,-1240 -9314,-3718 -2400,-2479 -3596,-5711 -3596,-9692 0,-4205 1215,-7604 3653,-10201 2438,-2594 5660,-3900 9680,-3900 3799,0 6870,1247 9212,3730 2343,2489 3515,5769 3515,9832 0,4180 -1216,7553 -3648,10113 -2422,2558 -5596,3836 -9502,3836zm259 -22350c-2103,0 -3774,784 -5009,2367 -1233,1577 -1854,3659 -1854,6255 0,2635 621,4720 1854,6258 1235,1530 2857,2298 4857,2298 2070,0 3705,-746 4920,-2236 1207,-1493 1817,-3558 1817,-6204 0,-2762 -588,-4908 -1760,-6441 -1178,-1532 -2785,-2297 -4825,-2297z"/>
   <path class="fil2" d="M224257 139062c-2137,0 -3918,-632 -5330,-1919 -1425,-1342 -2139,-2919 -2139,-4741 0,-1878 714,-3439 2139,-4700 1412,-1260 3193,-1878 5330,-1878 2124,0 3864,618 5263,1878 1397,1233 2082,2795 2082,4700 0,1932 -670,3521 -2041,4782 -1398,1246 -3165,1878 -5304,1878z"/>
   <path class="fil2" d="M218407 121481c-274,-699 -480,-1479 -631,-2344 -150,-878 -220,-1700 -220,-2466 0,-1233 124,-2358 358,-3372 246,-1028 601,-1987 1081,-2876 493,-892 1098,-1754 1810,-2564 724,-821 1576,-1629 2535,-2439 1013,-850 1903,-1643 2673,-2384 753,-739 1409,-1466 1944,-2206 535,-740 932,-1507 1206,-2288 260,-796 398,-1671 398,-2631 0,-836 -151,-1604 -439,-2315 -302,-700 -713,-1317 -1275,-1824 -547,-507 -1206,-904 -1999,-1206 -795,-287 -1673,-437 -2632,-437 -2082,0 -4248,437 -6509,1302 -2246,875 -4371,2192 -6372,3960l0 -12086c2055,-1233 4304,-2152 6742,-2769 2439,-616 4946,-932 7550,-932 2481,0 4796,274 6935,835 2151,551 4013,1413 5604,2592 1589,1163 2836,2671 3741,4507 891,1835 1341,4041 1341,6606 0,1628 -190,3108 -561,4439 -382,1315 -932,2575 -1645,3754 -726,1180 -1629,2302 -2699,3386 -1069,1081 -2302,2206 -3685,3356 -945,780 -1769,1494 -2466,2165 -712,672 -1303,1328 -1769,1987 -464,658 -821,1358 -1068,2084 -234,740 -355,1576 -355,2520 0,630 81,1289 259,1961 163,670 410,1233 700,1685l-10552 0z"/>
   <path class="fil1" d="M205198 138143l-34532 0 0 -57566 33202 0 0 10552 -20226 0 0 12811 18828 0 0 10510 -18828 0 0 13169 21556 0 0 10524z"/>
   <path class="fil1" d="M107771 138143l-34532 0 0 -57566 33202 0 0 10552 -20226 0 0 12811 18828 0 0 10510 -18828 0 0 13169 21556 0 0 10524z"/>
   <path class="fil1" d="M60070 138143l-13003 0 0 -23446 -23844 0 0 23446 -12976 0 0 -57566 12976 0 0 22967 23844 0 0 -22967 13003 0 0 57566z"/>
   <path class="fil1" d="M240505 70816l-19599 0 0 -32673 18844 0 0 5988 -11480 0 0 7272 10687 0 0 5966 -10687 0 0 7474 12235 0 0 5973z"/>
   <path class="fil1" d="M138330 44131l-9326 0 0 26685 -7381 0 0 -26685 -9269 0 0 -5988 25976 0 0 5988z"/>
   <path class="fil2" d="M97274 70816l-19600 0 0 -32673 18845 0 0 5988 -11481 0 0 7272 10687 0 0 5966 -10687 0 0 7474 12236 0 0 5973z"/>
   <path class="fil2" d="M73279 44131l-9326 0 0 26685 -7382 0 0 -26685 -9269 0 0 -5988 25977 0 0 5988z"/>
   <path class="fil2" d="M7884 69564l0 -7295c1323,1110 2760,1944 4309,2496 1547,551 3112,831 4690,831 933,0 1742,-85 2426,-247 692,-172 1268,-396 1735,-701 466,-295 809,-645 1033,-1042 235,-404 343,-841 343,-1314 0,-637 -179,-1206 -545,-1704 -365,-506 -863,-973 -1493,-1392 -629,-428 -1376,-839 -2246,-1228 -865,-397 -1798,-801 -2802,-1213 -2551,-1059 -4455,-2357 -5708,-3897 -1253,-1533 -1874,-3383 -1874,-5555 0,-1702 334,-3165 1018,-4385 686,-1228 1618,-2232 2793,-3026 1181,-786 2543,-1368 4091,-1742 1548,-372 3188,-560 4923,-560 1702,0 3213,109 4526,311 1308,204 2521,520 3632,950l0 6813c-551,-383 -1143,-717 -1788,-1004 -646,-287 -1315,-529 -1998,-724 -677,-187 -1361,-327 -2038,-419 -677,-85 -1316,-133 -1922,-133 -839,0 -1595,78 -2279,234 -684,163 -1260,388 -1735,677 -467,287 -832,630 -1096,1033 -257,406 -382,857 -382,1354 0,552 142,1043 429,1471 287,434 699,848 1237,1235 529,381 1175,764 1937,1136 753,375 1617,754 2573,1151 1308,544 2474,1128 3516,1742 1042,614 1936,1315 2674,2084 747,779 1316,1666 1713,2661 397,987 592,2146 592,3468 0,1830 -344,3352 -1036,4598 -692,1236 -1625,2240 -2816,3000 -1181,771 -2558,1323 -4129,1658 -1580,335 -3235,497 -4985,497 -1790,0 -3493,-147 -5110,-449 -1618,-305 -3026,-764 -4208,-1370z"/>
   <path class="fil2" d="M212192 16469c0,7985 -3722,11979 -11164,11979 -7224,0 -10832,-3900 -10832,-11700l0 -15360 6008 0 0 15430c0,4305 1684,6458 5047,6458 3298,0 4951,-2078 4951,-6237l0 -15651 5990 0 0 15081z"/>
   <path class="fil2" d="M158689 1388l-8660 17139 0 9459 -5991 0 0 -9352 -8440 -17246 6846 0 4285 9920c75,185 279,912 608,2172l76 0c165,-892 355,-1589 576,-2095l4363 -9997 6337 0z"/>
   <path class="fil1" d="M124582 6261l-7592 0 0 21725 -6009 0 0 -21725 -7547 0 0 -4873 21148 0 0 4873z"/>
   <path class="fil1" d="M99819 27986l-6046 0 -10967 -16716c-640,-974 -1089,-1709 -1334,-2203l-71 0c95,938 145,2374 145,4301l0 14618 -5660 0 0 -26598 6457 0 10555 16189c483,735 924,1457 1338,2172l75 0c-101,-615 -153,-1836 -153,-3653l0 -14708 5661 0 0 26598z"/>
   <path class="fil1" d="M45804 1388l-7033 26598 -6643 0 -4412 -17064c-235,-892 -373,-1887 -425,-2987l-76 0c-113,1208 -273,2208 -482,2987l-4527 17064 -6919 0 -6991 -26598 6548 0 3748 17715c158,754 279,1767 348,3039l114 0c49,-949 228,-1989 538,-3114l4824 -17640 6414 0 4363 17860c158,660 303,1609 423,2856l78 0c50,-975 176,-1963 385,-2963l3679 -17753 6046 0z"/>
   <rect class="fil2" x="35542" y="38142" width="7364" height="32674"/>
  </g>
 </g>
</svg>
